<?xml version="1.0" encoding="UTF-8" standalone="no"?>
<svg
   xmlns:dc="http://purl.org/dc/elements/1.1/"
   xmlns:cc="http://creativecommons.org/ns#"
   xmlns:rdf="http://www.w3.org/1999/02/22-rdf-syntax-ns#"
   xmlns:svg="http://www.w3.org/2000/svg"
   xmlns="http://www.w3.org/2000/svg"
   viewBox="0 0 2324.2268 528.05334"
   height="528.05334"
   width="2324.2268"
   xml:space="preserve"
   id="svg2"
   version="1.1"><metadata
     id="metadata8"><rdf:RDF><cc:Work
         rdf:about=""><dc:format>image/svg+xml</dc:format><dc:type
           rdf:resource="http://purl.org/dc/dcmitype/StillImage" /></cc:Work></rdf:RDF></metadata><defs
     id="defs6"><clipPath
       id="clipPath22"
       clipPathUnits="userSpaceOnUse"><path
         id="path20"
         d="M 0,396.04 H 1743.174 V 0 H 0 Z" /></clipPath></defs><g
     transform="matrix(1.3333333,0,0,-1.3333333,0,528.05333)"
     id="g10"><g
       transform="translate(45.5039,355.0664)"
       id="g12"><path
         id="path14"
         style="fill:#061e40;fill-opacity:1;fill-rule:nonzero;stroke:none"
         d="M 0,0 H 81.514 L 211.173,-166.262 V 0 h 85.825 V -314.518 H 220.459 L 85.821,-141.992 V -314.518 H 0 Z" /></g><g
       id="g16"><g
         clip-path="url(#clipPath22)"
         id="g18"><g
           transform="translate(580.4741,112.8789)"
           id="g24"><path
             id="path26"
             style="fill:#061e40;fill-opacity:1;fill-rule:nonzero;stroke:none"
             d="m 0,0 c 11.986,0 22.959,2.248 32.87,6.732 9.907,4.504 18.326,10.582 25.232,18.219 6.906,7.61 12.319,16.535 16.234,26.725 3.914,10.191 5.855,20.967 5.855,32.344 v 0.915 c 0,11.36 -1.941,22.169 -5.855,32.335 -3.915,10.194 -9.467,19.173 -16.669,26.968 -7.202,7.783 -15.773,13.996 -25.664,18.653 -9.914,4.629 -20.882,6.949 -32.92,6.949 -12.025,0 -22.887,-2.229 -32.653,-6.727 -9.767,-4.498 -18.171,-10.578 -25.269,-18.22 -7.057,-7.609 -12.467,-16.527 -16.201,-26.721 -3.755,-10.187 -5.632,-20.982 -5.632,-32.348 v -0.889 c 0,-11.402 1.947,-22.177 5.844,-32.363 3.914,-10.195 9.41,-19.179 16.464,-26.943 C -51.31,17.814 -42.827,11.6 -32.92,6.98 -23.005,2.307 -12.032,0 0,0 m -0.693,-78.639 c -24.243,0 -46.743,4.274 -67.391,12.815 -20.658,8.529 -38.515,20.14 -53.464,34.822 -15,14.682 -26.729,31.908 -35.292,51.668 -8.53,19.785 -12.794,40.902 -12.794,63.354 v 0.915 c 0,22.438 4.264,43.646 12.794,63.575 8.563,19.931 20.444,37.291 35.723,52.123 15.301,14.816 33.238,26.506 53.948,35.049 20.65,8.533 43.107,12.799 67.384,12.799 24.253,0 46.735,-4.266 67.406,-12.799 20.647,-8.543 38.496,-20.149 53.448,-34.832 14.993,-14.682 26.73,-31.905 35.29,-51.661 8.514,-19.766 12.793,-40.885 12.793,-63.365 v -0.889 c 0,-22.462 -4.279,-43.671 -12.793,-63.597 C 147.799,1.402 135.915,-15.953 120.632,-30.783 105.346,-45.6 87.395,-57.295 66.694,-65.824 46.027,-74.365 23.584,-78.639 -0.693,-78.639" /></g><g
           transform="translate(1109.8452,355.0664)"
           id="g28"><path
             id="path30"
             style="fill:#061e40;fill-opacity:1;fill-rule:nonzero;stroke:none"
             d="M 0,0 H -97.477 L -164.145,-127.361 -230.81,0 h -97.486 l 163.238,-316.775 h 1.827 z" /></g><g
           transform="translate(1075.2573,38.291)"
           id="g32"><path
             id="path34"
             style="fill:#ed3465;fill-opacity:1;fill-rule:nonzero;stroke:none"
             d="M 0,0 H 97.486 L 164.14,127.359 230.805,0 h 97.486 L 165.064,316.775 h -1.837 z" /></g><g
           transform="translate(1669.9956,203.3535)"
           id="g36"><path
             id="path38"
             style="fill:#061e40;fill-opacity:1;fill-rule:nonzero;stroke:none"
             d="m 0,0 c -10.169,7.479 -22.523,13.826 -37.042,19.074 -14.539,5.217 -30.792,9.776 -48.775,13.676 -10.79,2.365 -19.674,4.692 -26.725,6.93 -7.028,2.232 -12.595,4.487 -16.611,6.748 -4.059,2.227 -6.909,4.687 -8.551,7.4 -1.648,2.688 -2.453,5.809 -2.453,9.406 v 0.89 c 0,5.683 2.603,10.474 7.863,14.356 0.362,0.273 0.843,0.463 1.232,0.725 6.081,3.356 14.574,5.124 25.692,5.124 34.326,0 66.412,-11.283 96.248,-33.493 l 33.42,69.856 c -14.2,9.628 -29.551,17.525 -46.326,23.302 -25.303,8.745 -52.035,13.119 -80.195,13.119 -1.457,0 -2.829,-0.111 -4.259,-0.138 v 0.138 c -18.866,0 -35.79,-2.472 -50.753,-7.408 -13.317,-4.392 -24.816,-10.455 -34.702,-18.03 -0.771,-0.579 -1.628,-1.099 -2.39,-1.696 -0.292,-0.245 -0.532,-0.493 -0.821,-0.733 -0.164,-0.139 -0.355,-0.252 -0.51,-0.381 -0.493,-0.411 -0.884,-0.875 -1.365,-1.281 -9.744,-8.377 -17.552,-18.203 -23.16,-29.688 -6.102,-12.559 -7.992,-26.905 -7.992,-43.039 v -0.609 c 0.199,-15.459 3.206,-28.542 9.147,-39.09 6.143,-10.911 14.517,-20.049 25.167,-27.369 10.63,-7.332 23.132,-13.316 37.503,-17.939 14.362,-4.653 29.941,-8.897 46.738,-12.772 10.775,-2.404 19.559,-4.724 26.292,-6.973 6.724,-2.25 12.136,-4.568 16.16,-6.959 4.051,-2.384 6.839,-4.867 8.337,-7.396 1.491,-2.549 2.227,-5.447 2.227,-8.74 v -0.893 c 0,-6.875 -3.075,-12.193 -9.214,-15.926 -6.14,-3.732 -15.029,-5.615 -26.732,-5.615 -34.68,0 -67.07,11.514 -97.168,34.199 l -33.457,-69.925 c 14.448,-9.944 30.135,-18.034 47.29,-23.948 25.304,-8.74 52.029,-13.123 80.202,-13.123 19.15,0 36.52,2.34 52.106,6.973 15.557,4.623 28.91,11.355 39.992,20.168 11.074,8.842 19.708,19.519 25.855,32.078 6.103,12.561 9.221,26.9 9.221,43.047 v 0.926 c 0,14.638 -2.708,27.263 -8.119,37.871 C 17.991,-16.531 10.212,-7.475 0,0" /></g></g></g></g></svg>